<svg xmlns="http://www.w3.org/2000/svg" width="80" height="80"><g fill="none" fill-rule="evenodd"><path d="M0 0h64v64H0z"/><path fill="#27223F" d="M23.012 9.164C28.675 7.721 34.337 7 40 7s11.325.721 16.988 2.164A4 4 0 0160 13.041V40.5c0 16.781-7.5 29.62-16.005 32.76-1.315.486-6.673.46-7.987-.07C27.502 69.77 20 55.953 20 40.508V13.04a4 4 0 013.012-3.876z"/><rect width="32" height="18" x="24" y="18" fill="#535285" rx=".5"/><rect width="14" height="6" x="24" y="40" fill="#6F6E98" rx=".5"/><rect width="14" height="6" x="42" y="40" fill="#6F6E98" rx=".5"/></g></svg>